PathFileType	3	(X/Y/Z)	F:\ViconData\AntennenMessung\Messung1\Session1\ID21.trc
DataRate	CameraRate	NumFrames	NumMarkers	Units	OrigDataRate	OrigDataStartFrame	OrigNumFrames
120.0	120.0	4	70	mm	120.0	423	1126	
Frame#	Time	Ashort			Along			Atop			A4			Bshort			Blong			Btop			B4			Cshort			Clong			Ctop			C4			Dshort			Dlong			Dtop			D4			Eshort			Elong			Etop			E4			Fshort			Flong			Ftop			F4			Gshort			Glong			Gtop			G4			Hshort			Hlong			Htop			H4			I1			I2			I3			I4			I5			WandAshort			WandAlong			WandAtop			WandA4			WandA15			WandBshort			WandB4			WandB5			WandBtop			WandBlong			WandCshort			WandClong			WandCtop			WandC4			WandC5			Acenter			Aantenna			Bcenter			Bantenna			Ccenter			Cantenna			Dcenter			Dantenna			Ecenter			Eantenna			Fcenter			Fantenna			Gcenter			Gantenna			Hcenter			Hantenna			Icenter			Iantenna			
		X1	Y1	Z1	X2	Y2	Z2	X3	Y3	Z3	X4	Y4	Z4	X5	Y5	Z5	X6	Y6	Z6	X7	Y7	Z7	X8	Y8	Z8	X9	Y9	Z9	X10	Y10	Z10	X11	Y11	Z11	X12	Y12	Z12	X13	Y13	Z13	X14	Y14	Z14	X15	Y15	Z15	X16	Y16	Z16	X17	Y17	Z17	X18	Y18	Z18	X19	Y19	Z19	X20	Y20	Z20	X21	Y21	Z21	X22	Y22	Z22	X23	Y23	Z23	X24	Y24	Z24	X25	Y25	Z25	X26	Y26	Z26	X27	Y27	Z27	X28	Y28	Z28	X29	Y29	Z29	X30	Y30	Z30	X31	Y31	Z31	X32	Y32	Z32	X33	Y33	Z33	X34	Y34	Z34	X35	Y35	Z35	X36	Y36	Z36	X37	Y37	Z37	X38	Y38	Z38	X39	Y39	Z39	X40	Y40	Z40	X41	Y41	Z41	X42	Y42	Z42	X43	Y43	Z43	X44	Y44	Z44	X45	Y45	Z45	X46	Y46	Z46	X47	Y47	Z47	X48	Y48	Z48	X49	Y49	Z49	X50	Y50	Z50	X51	Y51	Z51	X52	Y52	Z52	X53	Y53	Z53	X54	Y54	Z54	X55	Y55	Z55	X56	Y56	Z56	X57	Y57	Z57	X58	Y58	Z58	X59	Y59	Z59	X60	Y60	Z60	X61	Y61	Z61	X62	Y62	Z62	X63	Y63	Z63	X64	Y64	Z64	X65	Y65	Z65	X66	Y66	Z66	X67	Y67	Z67	X68	Y68	Z68	X69	Y69	Z69	X70	Y70	Z70	
423	3.5166667	-1038.2314	214.57608	-1644.1781	-1109.4033	204.24631	-1599.3141	-1063.8079	173.09018	-1625.6892	-1054.2435	262.41232	-1634.9949	-1353.0143	234.9451	1003.5834	-1281.3737	227.16299	1052.4764	-1322.726	193.93597	1020.947	-1284.757	287.92984	1052.7867	813.89789	187.73119	1209.4188	892.4397	178.52547	1179.198	844.28699	145.64366	1198.217	860.88983	292.51672	1168.6106	1115.7325	209.57602	-1401.5393	1056.1635	194.24724	-1460.4766	1094.6901	161.86526	-1424.0292	1069.8397	238.68054	-1425.7728	-1204.5577	1685.9684	-1563.1737	-1129.1173	1688.333	-1606.0623	-1173.2125	1724.4567	-1581.897	-1134.0444	1581.0148	-1603.9343	-1239.7488	1699.2256	1119.5585	-1309.322	1698.7119	1071.939	-1269.0789	1737.4072	1094.4365	-1245.0486	1593.5938	1106.1888	988.85486	1664.225	1162.2131	957.55396	1700.3132	1183.8898	922.96332	1661.9526	1215.1362	939.74725	1659.4215	1159.8817	998.91888	1668.5	-1579.5691	1058.817	1670.168	-1518.717	1024.9415	1708.0638	-1551.2063	1059.2155	1672.1558	-1585.5275	-209.48189	1636.9431	-265.36597	-216.4957	1638.4244	-181.31804	-213.25125	1674.4333	-228.39857	-244.43997	1635.2505	-231.19823	-164.62305	1640.1011	-225.31102																																														-1068.7246	210.15033	-1624.9563	-1073.853	248.80412	-1624.192	-1321.4806	231.5197	1025.1042	-1320.1969	270.26227	1029.3898	848.01099	183.73285	1196.2928	851.80121	222.49883	1194.3347	1088.5598	202.58374	-1428.4236	1082.7866	240.9314	-1432.5623	-1171.9369	1686.9907	-1581.7188	-1170.6097	1648.0138	-1581.5336	-1271.2379	1698.9929	1098.0055	-1273.4172	1660.2208	1101.6078	953.28107	1705.2395	1186.8488	973.00647	1733.403	1168.4443	1026.4358	1669.2661	-1551.6136	1027.9368	1630.2972	-1552.0229	-212.62534	1637.6068	-227.69727	-211.96271	1598.6196	-226.95483
424	3.525	-1038.2312	214.56181	-1644.1926	-1109.3907	204.29337	-1599.3425	-1064.0216	172.5733	-1625.3999	-1054.2135	262.34232	-1634.9706	-1352.9619	234.99353	1003.6042	-1281.3301	227.16615	1052.4078	-1322.6932	193.96477	1020.894	-1284.7108	287.93347	1052.7827	813.84717	187.72931	1209.4186	892.49139	178.56548	1179.0989	844.37396	145.56555	1198.3129	860.95038	292.52499	1168.7363	1115.7252	209.53796	-1401.5387	1056.1366	194.187	-1460.4523	1094.7699	161.96541	-1423.9629	1069.8711	238.71074	-1425.7756	-1204.5553	1685.9508	-1563.1716	-1129.1294	1688.3312	-1606.0894	-1173.1965	1724.4408	-1581.892	-1134.0594	1581.0049	-1603.9188	-1239.7295	1699.2255	1119.5565	-1308.4438	1699.4331	1069.3346	-1270.5775	1736.5884	1097.0325	-1244.6713	1593.7898	1106.4924	988.8562	1664.2429	1162.2181	957.54639	1700.2765	1183.9149	922.95905	1661.9973	1215.1309	939.76727	1659.4124	1159.8696	998.94952	1668.4795	-1579.5516	1058.705	1669.9784	-1518.7314	1024.9348	1708.0463	-1551.2161	1059.2059	1672.1525	-1585.5343	-209.48007	1636.9337	-265.36938	-216.48183	1638.4255	-181.32402	-213.2541	1674.4309	-228.39783	-244.45081	1635.2657	-231.20279	-164.38478	1640.278	-225.41261																																														-1069.0435	210.11555	-1624.7723	-1074.2135	248.76595	-1624.1263	-1321.439	231.54893	1025.0811	-1320.1462	270.28784	1029.3969	848.02454	183.74686	1196.2421	851.73114	222.51335	1194.1395	1088.6287	202.5575	-1428.3281	1082.8274	240.9025	-1432.4519	-1171.9264	1686.9803	-1581.7375	-1170.6049	1648.0031	-1581.5767	-1270.6404	1699.3187	1096.9644	-1270.7063	1660.3188	1096.8932	953.20917	1705.2679	1186.9204	972.91766	1733.4596	1168.5409	1026.3573	1669.1669	-1551.6554	1027.7832	1630.1954	-1552.0961	-212.619	1637.6024	-227.69116	-211.94669	1598.6154	-226.94305
425	3.5333333	-1038.2488	214.5692	-1644.1746	-1109.3794	204.24905	-1599.3386	-1063.7784	173.0731	-1625.6783	-1054.2292	262.4248	-1635.0149	-1352.9332	234.99173	1003.5576	-1281.3092	227.17902	1052.3564	-1322.631	193.9967	1020.8672	-1284.7478	287.93756	1052.7505	813.82581	187.73557	1209.5345	892.5202	178.64691	1179.0396	844.31213	145.52979	1198.4315	860.91553	292.51428	1168.5824	1115.73	209.58749	-1401.5472	1056.087	194.12502	-1460.4198	1094.6924	161.85551	-1423.9641	1069.8369	238.68327	-1425.7629	-1204.528	1685.9491	-1563.1738	-1129.126	1688.3466	-1606.0647	-1173.208	1724.4718	-1581.8972	-1134.053	1581.0115	-1603.9343	-1239.7246	1699.2327	1119.5747	-1308.2302	1699.0941	1068.5093	-1270.4685	1736.4169	1096.9688	-1244.6305	1593.8508	1106.5514	988.86951	1664.2593	1162.2289	957.59082	1700.2166	1183.9508	923.06152	1661.9772	1215.1447	939.7926	1659.4391	1159.8541	998.93127	1668.5123	-1579.5681	1058.6992	1669.9841	-1518.7368	1024.9346	1708.0496	-1551.2255	1059.1945	1672.1456	-1585.531	-209.49702	1636.9386	-265.35727	-216.49219	1638.4343	-181.31561	-213.24857	1674.4332	-228.39879	-244.45671	1635.2592	-231.21326	-164.62686	1640.1127	-225.31343																																														-1068.7126	210.14928	-1624.9722	-1073.8566	248.80154	-1624.2361	-1321.3855	231.55054	1025.0516	-1320.1008	270.28964	1029.368	847.91534	183.79845	1196.3243	851.56586	222.5685	1194.1897	1088.5251	202.53465	-1428.4004	1082.7131	240.87183	-1432.5813	-1171.9172	1686.9858	-1581.7235	-1170.5753	1648.0094	-1581.5431	-1270.2709	1699.1709	1096.8048	-1270.064	1660.1719	1096.6332	953.22772	1705.2322	1186.9806	972.90637	1733.4492	1168.6082	1026.3429	1669.1871	-1551.6688	1027.7551	1630.2153	-1552.1135	-212.63206	1637.6088	-227.69208	-211.97934	1598.6215	-226.94388
426	3.5416667	-1038.2759	214.58057	-1644.1671	-1109.3837	204.19598	-1599.3044	-1063.8383	173.07144	-1625.6543	-1054.2141	262.33661	-1634.9677	-1352.8987	234.87164	1003.5718	-1281.3495	227.19122	1052.4528	-1322.6497	194.06575	1020.8441	-1284.7805	287.88919	1052.8085	813.95911	187.73848	1209.5089	892.18951	178.60872	1179.2291	844.56335	145.35684	1198.3651	860.89191	292.53821	1168.4976	1115.7411	209.57999	-1401.5392	1055.8489	194.48639	-1460.9412	1094.6642	161.84651	-1423.9989	1069.8661	238.63858	-1425.7493	-1204.5652	1685.9609	-1563.1694	-1129.1179	1688.3291	-1606.0559	-1173.1963	1724.4597	-1581.9044	-1134.0562	1581.025	-1603.9342	-1239.7443	1699.2606	1119.5825	-1309.2999	1698.7148	1071.9374	-1270.5551	1736.5776	1097.0249	-1244.9425	1593.7576	1106.0815	988.84595	1664.2329	1162.2296	957.21979	1700.4684	1183.9021	922.94012	1661.9236	1215.1487	939.73254	1659.3979	1159.9469	998.93542	1668.4913	-1579.557	1058.8282	1670.1702	-1518.7076	1024.9293	1708.0581	-1551.1969	1059.2063	1672.1531	-1585.5316	-209.49065	1636.9376	-265.36426	-216.47978	1638.4213	-181.32437	-213.25761	1674.4316	-228.39125	-244.44608	1635.2793	-231.20035	-164.39371	1640.2822	-225.42506																																														-1068.785	210.12498	-1624.9183	-1073.9452	248.77449	-1624.1508	-1321.4904	231.50012	1025.0293	-1320.2909	270.2403	1029.3605	848.2229	183.73975	1196.2467	851.91888	222.50525	1194.1073	1088.6885	202.76239	-1428.3704	1083.0836	241.13914	-1432.4705	-1171.9189	1686.9855	-1581.7264	-1170.5905	1648.0085	-1581.5414	-1271.0315	1699.015	1098.151	-1271.5261	1660.0356	1099.3195	953.07587	1705.2162	1186.7417	972.69312	1733.3979	1168.25	1026.4397	1669.2623	-1551.6133	1027.9569	1630.2941	-1552.0315	-212.62393	1637.6027	-227.68829	-211.95314	1598.6155	-226.94418
